# xmcd
#
# Track frame offsets:
#	150
#	20173
#	38225
#	65470
#	87696
#	105456
#	123015
#	144522
#	169052
#	189820
#	207193
#	232696
#	256495
#
# Disc length: 3724 seconds
#
# Revision: 1
# Processed by: cddbd v1.5.2PL0 Copyright (c) Steve Scherf et al.
# Submitted via: Jack! The Knife 17 Overdose
#
DISCID=a90e8a0d
DTITLE=Judas Priest - Redeemer Of Souls
DYEAR=2014
DGENRE=Heavy Metal
TTITLE0=Dragonaught
TTITLE1=Redeemer Of Souls
TTITLE2=Halls Of Valhalla
TTITLE3=Sword Of Damocles
TTITLE4=March Of The Damned
TTITLE5=Down In Flames
TTITLE6=Hell and Back
TTITLE7=Cold Blooded
TTITLE8=Metalizer
TTITLE9=Crossfire
TTITLE10=Secrets Of The Dead
TTITLE11=Battle Cry
TTITLE12=Beginning Of The End
EXTD=Mike Exeter
EXTT0=Tipton, Halford, Faulkner
EXTT1=Tipton, Halford, Faulkner
EXTT2=Tipton, Halford, Faulkner
EXTT3=Tipton, Halford, Faulkner
EXTT4=Tipton, Halford, Faulkner
EXTT5=Tipton, Halford, Faulkner
EXTT6=Tipton, Halford, Faulkner
EXTT7=Tipton, Halford, Faulkner
EXTT8=Tipton, Halford, Faulkner
EXTT9=Tipton, Halford, Faulkner
EXTT10=Tipton, Halford, Faulkner
EXTT11=Tipton, Halford, Faulkner
EXTT12=Tipton, Halford, Faulkner
PLAYORDER=
